<svg width="295" height="245" viewBox="0 0 295 245" fill="none" xmlns="http://www.w3.org/2000/svg">
<g filter="url(#filter0_dd_447_796)">
<path d="M18 33C18 24.7157 24.7157 18 33 18H262C270.284 18 277 24.7157 277 33V212C277 220.284 270.284 227 262 227H33C24.7157 227 18 220.284 18 212V33Z" fill="#28282B"/>
</g>
<g filter="url(#filter1_dd_447_796)">
<path d="M98 77C98 68.7157 104.716 62 113 62H176C184.284 62 191 68.7157 191 77V168C191 176.284 184.284 183 176 183H113C104.716 183 98 176.284 98 168V77Z" fill="#28282B"/>
</g>
<rect x="114" y="125" width="37" height="4" fill="white"/>
<rect x="114" y="161" width="37" height="4" fill="white"/>
<rect x="114" y="149" width="37" height="4" fill="white"/>
<rect x="114" y="137" width="37" height="4" fill="white"/>
<rect x="114" y="84" width="37" height="4" fill="white"/>
<rect x="114" y="96" width="67" height="21" fill="white"/>
<rect x="158" y="161" width="23" height="4" fill="white"/>
<rect x="158" y="149" width="23" height="4" fill="white"/>
<rect x="158" y="137" width="23" height="4" fill="white"/>
<rect x="158" y="84" width="23" height="4" fill="white"/>
<rect x="158" y="125" width="23" height="4" fill="white"/>
<defs>
<filter id="filter0_dd_447_796" x="0" y="0" width="295" height="245" filterUnits="userSpaceOnUse" color-interpolation-filters="sRGB">
<feFlood flood-opacity="0" result="BackgroundImageFix"/>
<feColorMatrix in="SourceAlpha" type="matrix" values="0 0 0 0 0 0 0 0 0 0 0 0 0 0 0 0 0 0 127 0" result="hardAlpha"/>
<feOffset dx="6" dy="6"/>
<feGaussianBlur stdDeviation="6"/>
<feComposite in2="hardAlpha" operator="out"/>
<feColorMatrix type="matrix" values="0 0 0 0 0 0 0 0 0 0 0 0 0 0 0 0 0 0 0.25 0"/>
<feBlend mode="normal" in2="BackgroundImageFix" result="effect1_dropShadow_447_796"/>
<feColorMatrix in="SourceAlpha" type="matrix" values="0 0 0 0 0 0 0 0 0 0 0 0 0 0 0 0 0 0 127 0" result="hardAlpha"/>
<feOffset dx="-6" dy="-6"/>
<feGaussianBlur stdDeviation="6"/>
<feComposite in2="hardAlpha" operator="out"/>
<feColorMatrix type="matrix" values="0 0 0 0 1 0 0 0 0 1 0 0 0 0 1 0 0 0 0.1 0"/>
<feBlend mode="normal" in2="effect1_dropShadow_447_796" result="effect2_dropShadow_447_796"/>
<feBlend mode="normal" in="SourceGraphic" in2="effect2_dropShadow_447_796" result="shape"/>
</filter>
<filter id="filter1_dd_447_796" x="80" y="44" width="129" height="157" filterUnits="userSpaceOnUse" color-interpolation-filters="sRGB">
<feFlood flood-opacity="0" result="BackgroundImageFix"/>
<feColorMatrix in="SourceAlpha" type="matrix" values="0 0 0 0 0 0 0 0 0 0 0 0 0 0 0 0 0 0 127 0" result="hardAlpha"/>
<feOffset dx="6" dy="6"/>
<feGaussianBlur stdDeviation="6"/>
<feComposite in2="hardAlpha" operator="out"/>
<feColorMatrix type="matrix" values="0 0 0 0 0 0 0 0 0 0 0 0 0 0 0 0 0 0 0.25 0"/>
<feBlend mode="normal" in2="BackgroundImageFix" result="effect1_dropShadow_447_796"/>
<feColorMatrix in="SourceAlpha" type="matrix" values="0 0 0 0 0 0 0 0 0 0 0 0 0 0 0 0 0 0 127 0" result="hardAlpha"/>
<feOffset dx="-6" dy="-6"/>
<feGaussianBlur stdDeviation="6"/>
<feComposite in2="hardAlpha" operator="out"/>
<feColorMatrix type="matrix" values="0 0 0 0 1 0 0 0 0 1 0 0 0 0 1 0 0 0 0.1 0"/>
<feBlend mode="normal" in2="effect1_dropShadow_447_796" result="effect2_dropShadow_447_796"/>
<feBlend mode="normal" in="SourceGraphic" in2="effect2_dropShadow_447_796" result="shape"/>
</filter>
</defs>
</svg>
