<svg width="295" height="245" viewBox="0 0 295 245" fill="none" xmlns="http://www.w3.org/2000/svg">
<g filter="url(#filter0_dd_466_322)">
<path d="M18 33C18 24.7157 24.7157 18 33 18H262C270.284 18 277 24.7157 277 33V212C277 220.284 270.284 227 262 227H33C24.7157 227 18 220.284 18 212V33Z" fill="#28282B"/>
</g>
<g filter="url(#filter1_dd_466_322)">
<path d="M207 148.5C207 133.515 201.047 119.144 190.452 108.548C179.856 97.9527 165.485 92 150.5 92C135.515 92 121.144 97.9527 110.548 108.548C99.9527 119.144 94 133.515 94 148.5L150.5 148.5H207Z" fill="#28282B"/>
</g>
<path d="M165.865 108.006L168.621 109.193L151.614 148.687L148.859 147.5L165.865 108.006Z" fill="white"/>
<defs>
<filter id="filter0_dd_466_322" x="0" y="0" width="295" height="245" filterUnits="userSpaceOnUse" color-interpolation-filters="sRGB">
<feFlood flood-opacity="0" result="BackgroundImageFix"/>
<feColorMatrix in="SourceAlpha" type="matrix" values="0 0 0 0 0 0 0 0 0 0 0 0 0 0 0 0 0 0 127 0" result="hardAlpha"/>
<feOffset dx="6" dy="6"/>
<feGaussianBlur stdDeviation="6"/>
<feComposite in2="hardAlpha" operator="out"/>
<feColorMatrix type="matrix" values="0 0 0 0 0 0 0 0 0 0 0 0 0 0 0 0 0 0 0.25 0"/>
<feBlend mode="normal" in2="BackgroundImageFix" result="effect1_dropShadow_466_322"/>
<feColorMatrix in="SourceAlpha" type="matrix" values="0 0 0 0 0 0 0 0 0 0 0 0 0 0 0 0 0 0 127 0" result="hardAlpha"/>
<feOffset dx="-6" dy="-6"/>
<feGaussianBlur stdDeviation="6"/>
<feComposite in2="hardAlpha" operator="out"/>
<feColorMatrix type="matrix" values="0 0 0 0 1 0 0 0 0 1 0 0 0 0 1 0 0 0 0.1 0"/>
<feBlend mode="normal" in2="effect1_dropShadow_466_322" result="effect2_dropShadow_466_322"/>
<feBlend mode="normal" in="SourceGraphic" in2="effect2_dropShadow_466_322" result="shape"/>
</filter>
<filter id="filter1_dd_466_322" x="76" y="74" width="149" height="92.5" filterUnits="userSpaceOnUse" color-interpolation-filters="sRGB">
<feFlood flood-opacity="0" result="BackgroundImageFix"/>
<feColorMatrix in="SourceAlpha" type="matrix" values="0 0 0 0 0 0 0 0 0 0 0 0 0 0 0 0 0 0 127 0" result="hardAlpha"/>
<feOffset dx="-6" dy="-6"/>
<feGaussianBlur stdDeviation="6"/>
<feComposite in2="hardAlpha" operator="out"/>
<feColorMatrix type="matrix" values="0 0 0 0 1 0 0 0 0 1 0 0 0 0 1 0 0 0 0.1 0"/>
<feBlend mode="normal" in2="BackgroundImageFix" result="effect1_dropShadow_466_322"/>
<feColorMatrix in="SourceAlpha" type="matrix" values="0 0 0 0 0 0 0 0 0 0 0 0 0 0 0 0 0 0 127 0" result="hardAlpha"/>
<feOffset dx="6" dy="6"/>
<feGaussianBlur stdDeviation="6"/>
<feComposite in2="hardAlpha" operator="out"/>
<feColorMatrix type="matrix" values="0 0 0 0 0 0 0 0 0 0 0 0 0 0 0 0 0 0 0.25 0"/>
<feBlend mode="normal" in2="effect1_dropShadow_466_322" result="effect2_dropShadow_466_322"/>
<feBlend mode="normal" in="SourceGraphic" in2="effect2_dropShadow_466_322" result="shape"/>
</filter>
</defs>
</svg>
