<svg width="295" height="245" viewBox="0 0 295 245" fill="none" xmlns="http://www.w3.org/2000/svg">
<g filter="url(#filter0_dd_461_247)">
<path d="M18 33C18 24.7157 24.7157 18 33 18H262C270.284 18 277 24.7157 277 33V212C277 220.284 270.284 227 262 227H33C24.7157 227 18 220.284 18 212V33Z" fill="#28282B"/>
</g>
<g filter="url(#filter1_dd_461_247)">
<path d="M98 90C98 81.7157 104.716 75 113 75H179C187.284 75 194 81.7157 194 90V156C194 164.284 187.284 171 179 171H113C104.716 171 98 164.284 98 156V90Z" fill="#28282B"/>
</g>
<g clip-path="url(#clip0_461_247)">
<path d="M168.646 122.79L137.823 122.609M168.646 122.79L130.71 140.781L137.823 122.609M168.646 122.79L130.925 104.354L137.823 122.609" stroke="white" stroke-width="4" stroke-linecap="round" stroke-linejoin="round"/>
</g>
<defs>
<filter id="filter0_dd_461_247" x="0" y="0" width="295" height="245" filterUnits="userSpaceOnUse" color-interpolation-filters="sRGB">
<feFlood flood-opacity="0" result="BackgroundImageFix"/>
<feColorMatrix in="SourceAlpha" type="matrix" values="0 0 0 0 0 0 0 0 0 0 0 0 0 0 0 0 0 0 127 0" result="hardAlpha"/>
<feOffset dx="6" dy="6"/>
<feGaussianBlur stdDeviation="6"/>
<feComposite in2="hardAlpha" operator="out"/>
<feColorMatrix type="matrix" values="0 0 0 0 0 0 0 0 0 0 0 0 0 0 0 0 0 0 0.25 0"/>
<feBlend mode="normal" in2="BackgroundImageFix" result="effect1_dropShadow_461_247"/>
<feColorMatrix in="SourceAlpha" type="matrix" values="0 0 0 0 0 0 0 0 0 0 0 0 0 0 0 0 0 0 127 0" result="hardAlpha"/>
<feOffset dx="-6" dy="-6"/>
<feGaussianBlur stdDeviation="6"/>
<feComposite in2="hardAlpha" operator="out"/>
<feColorMatrix type="matrix" values="0 0 0 0 1 0 0 0 0 1 0 0 0 0 1 0 0 0 0.1 0"/>
<feBlend mode="normal" in2="effect1_dropShadow_461_247" result="effect2_dropShadow_461_247"/>
<feBlend mode="normal" in="SourceGraphic" in2="effect2_dropShadow_461_247" result="shape"/>
</filter>
<filter id="filter1_dd_461_247" x="80" y="57" width="132" height="132" filterUnits="userSpaceOnUse" color-interpolation-filters="sRGB">
<feFlood flood-opacity="0" result="BackgroundImageFix"/>
<feColorMatrix in="SourceAlpha" type="matrix" values="0 0 0 0 0 0 0 0 0 0 0 0 0 0 0 0 0 0 127 0" result="hardAlpha"/>
<feOffset dx="6" dy="6"/>
<feGaussianBlur stdDeviation="6"/>
<feComposite in2="hardAlpha" operator="out"/>
<feColorMatrix type="matrix" values="0 0 0 0 0 0 0 0 0 0 0 0 0 0 0 0 0 0 0.25 0"/>
<feBlend mode="normal" in2="BackgroundImageFix" result="effect1_dropShadow_461_247"/>
<feColorMatrix in="SourceAlpha" type="matrix" values="0 0 0 0 0 0 0 0 0 0 0 0 0 0 0 0 0 0 127 0" result="hardAlpha"/>
<feOffset dx="-6" dy="-6"/>
<feGaussianBlur stdDeviation="6"/>
<feComposite in2="hardAlpha" operator="out"/>
<feColorMatrix type="matrix" values="0 0 0 0 1 0 0 0 0 1 0 0 0 0 1 0 0 0 0.1 0"/>
<feBlend mode="normal" in2="effect1_dropShadow_461_247" result="effect2_dropShadow_461_247"/>
<feBlend mode="normal" in="SourceGraphic" in2="effect2_dropShadow_461_247" result="shape"/>
</filter>
<clipPath id="clip0_461_247">
<rect width="47.5537" height="47.5537" fill="white" transform="translate(140.823 89) rotate(45.3377)"/>
</clipPath>
</defs>
</svg>
