<svg width="295" height="245" viewBox="0 0 295 245" fill="none" xmlns="http://www.w3.org/2000/svg">
<g filter="url(#filter0_dd_461_246)">
<path d="M18 33C18 24.7157 24.7157 18 33 18H262C270.284 18 277 24.7157 277 33V212C277 220.284 270.284 227 262 227H33C24.7157 227 18 220.284 18 212V33Z" fill="#28282B"/>
</g>
<g filter="url(#filter1_dd_461_246)">
<circle cx="148" cy="123" r="50" fill="#28282B"/>
</g>
<path d="M156.3 104.339C156.487 103.532 155.984 102.726 155.177 102.539L142.026 99.4899C141.219 99.3028 140.413 99.8054 140.226 100.612C140.039 101.419 140.541 102.225 141.348 102.412L153.038 105.122L150.328 116.812C150.141 117.619 150.644 118.425 151.451 118.612C152.258 118.8 153.064 118.297 153.251 117.49L156.3 104.339ZM130.794 120.762L155.632 105.273L154.045 102.727L129.206 118.216L130.794 120.762Z" fill="white"/>
<path d="M136.863 140.73C136.71 141.544 137.246 142.328 138.061 142.481L151.329 144.972C152.143 145.125 152.927 144.589 153.08 143.774C153.233 142.96 152.697 142.176 151.882 142.023L140.088 139.809L142.303 128.015C142.456 127.201 141.92 126.417 141.105 126.264C140.291 126.111 139.507 126.647 139.354 127.462L136.863 140.73ZM161.653 123.245L137.491 139.768L139.184 142.245L163.347 125.721L161.653 123.245Z" fill="white"/>
<defs>
<filter id="filter0_dd_461_246" x="0" y="0" width="295" height="245" filterUnits="userSpaceOnUse" color-interpolation-filters="sRGB">
<feFlood flood-opacity="0" result="BackgroundImageFix"/>
<feColorMatrix in="SourceAlpha" type="matrix" values="0 0 0 0 0 0 0 0 0 0 0 0 0 0 0 0 0 0 127 0" result="hardAlpha"/>
<feOffset dx="6" dy="6"/>
<feGaussianBlur stdDeviation="6"/>
<feComposite in2="hardAlpha" operator="out"/>
<feColorMatrix type="matrix" values="0 0 0 0 0 0 0 0 0 0 0 0 0 0 0 0 0 0 0.25 0"/>
<feBlend mode="normal" in2="BackgroundImageFix" result="effect1_dropShadow_461_246"/>
<feColorMatrix in="SourceAlpha" type="matrix" values="0 0 0 0 0 0 0 0 0 0 0 0 0 0 0 0 0 0 127 0" result="hardAlpha"/>
<feOffset dx="-6" dy="-6"/>
<feGaussianBlur stdDeviation="6"/>
<feComposite in2="hardAlpha" operator="out"/>
<feColorMatrix type="matrix" values="0 0 0 0 1 0 0 0 0 1 0 0 0 0 1 0 0 0 0.1 0"/>
<feBlend mode="normal" in2="effect1_dropShadow_461_246" result="effect2_dropShadow_461_246"/>
<feBlend mode="normal" in="SourceGraphic" in2="effect2_dropShadow_461_246" result="shape"/>
</filter>
<filter id="filter1_dd_461_246" x="80" y="55" width="136" height="136" filterUnits="userSpaceOnUse" color-interpolation-filters="sRGB">
<feFlood flood-opacity="0" result="BackgroundImageFix"/>
<feColorMatrix in="SourceAlpha" type="matrix" values="0 0 0 0 0 0 0 0 0 0 0 0 0 0 0 0 0 0 127 0" result="hardAlpha"/>
<feOffset dx="-6" dy="-6"/>
<feGaussianBlur stdDeviation="6"/>
<feComposite in2="hardAlpha" operator="out"/>
<feColorMatrix type="matrix" values="0 0 0 0 1 0 0 0 0 1 0 0 0 0 1 0 0 0 0.1 0"/>
<feBlend mode="normal" in2="BackgroundImageFix" result="effect1_dropShadow_461_246"/>
<feColorMatrix in="SourceAlpha" type="matrix" values="0 0 0 0 0 0 0 0 0 0 0 0 0 0 0 0 0 0 127 0" result="hardAlpha"/>
<feOffset dx="6" dy="6"/>
<feGaussianBlur stdDeviation="6"/>
<feComposite in2="hardAlpha" operator="out"/>
<feColorMatrix type="matrix" values="0 0 0 0 0 0 0 0 0 0 0 0 0 0 0 0 0 0 0.25 0"/>
<feBlend mode="normal" in2="effect1_dropShadow_461_246" result="effect2_dropShadow_461_246"/>
<feBlend mode="normal" in="SourceGraphic" in2="effect2_dropShadow_461_246" result="shape"/>
</filter>
</defs>
</svg>
