<svg width="13" height="13" viewBox="0 0 13 13" fill="none" xmlns="http://www.w3.org/2000/svg">
<path d="M9.94788 1.1579C9.48724 1.1579 9.04547 1.34089 8.71975 1.66661C8.39403 1.99233 8.21104 2.4341 8.21104 2.89474V9.84211C8.21104 10.3027 8.39403 10.7445 8.71975 11.0702C9.04547 11.396 9.48724 11.579 9.94788 11.579C10.4085 11.579 10.8503 11.396 11.176 11.0702C11.5017 10.7445 11.6847 10.3027 11.6847 9.84211C11.6847 9.38147 11.5017 8.9397 11.176 8.61398C10.8503 8.28825 10.4085 8.10527 9.94788 8.10527H3.00051C2.53987 8.10527 2.0981 8.28825 1.77238 8.61398C1.44666 8.9397 1.26367 9.38147 1.26367 9.84211C1.26367 10.3027 1.44666 10.7445 1.77238 11.0702C2.0981 11.396 2.53987 11.579 3.00051 11.579C3.46115 11.579 3.90293 11.396 4.22865 11.0702C4.55437 10.7445 4.73736 10.3027 4.73736 9.84211V2.89474C4.73736 2.4341 4.55437 1.99233 4.22865 1.66661C3.90293 1.34089 3.46115 1.1579 3.00051 1.1579C2.53987 1.1579 2.0981 1.34089 1.77238 1.66661C1.44666 1.99233 1.26367 2.4341 1.26367 2.89474C1.26367 3.35538 1.44666 3.79715 1.77238 4.12287C2.0981 4.44859 2.53987 4.63158 3.00051 4.63158H9.94788C10.4085 4.63158 10.8503 4.44859 11.176 4.12287C11.5017 3.79715 11.6847 3.35538 11.6847 2.89474C11.6847 2.4341 11.5017 1.99233 11.176 1.66661C10.8503 1.34089 10.4085 1.1579 9.94788 1.1579Z" stroke="#9B9B9B" stroke-linecap="round" stroke-linejoin="round"/>
</svg>
