<?xml version="1.0" encoding="UTF-8"?>
<svg id="logo" xmlns="http://www.w3.org/2000/svg" viewBox="0 0 1920 1080">
  <defs>
    <style>
      .cls-1 {
        fill: #d4145a;
      }

      .cls-2 {
        fill: #3fa9f5;
      }

      .cls-3 {
        letter-spacing: 0em;
      }

      .cls-4 {
        letter-spacing: 0em;
      }

      .cls-5 {
        fill: #ff931e;
      }

      .cls-6 {
        font-family: GothicA1-Bold, 'Gothic A1';
        font-size: 283.93px;
        font-weight: 700;
      }

      .cls-6, .cls-7 {
        fill: #fff;
      }

      .cls-8 {
        letter-spacing: 0em;
      }

      .cls-7 {
        font-family: GothicA1-Light, 'Gothic A1';
        font-size: 109.2px;
        font-weight: 300;
        letter-spacing: .08em;
      }
    </style>
  </defs>
  <rect width="1920" height="1080"/>
  <g>
    <g>
      <text class="cls-7" transform="translate(962.16 705.63)"><tspan x="0" y="0">technologies</tspan></text>
      <text class="cls-6" transform="translate(622.09 590.02)"><tspan class="cls-8" x="0" y="0">Sy</tspan><tspan class="cls-4" x="338.89" y="0">n</tspan><tspan class="cls-8" x="505.56" y="0">th</tspan><tspan class="cls-3" x="785.94" y="0">e</tspan><tspan class="cls-8" x="950.11" y="0">x</tspan></text>
    </g>
    <g>
      <path class="cls-2" d="M558.26,709.63c.22-3.45.32-6.92.32-10.42,0-5.48-.26-10.89-.77-16.25-4.93-52.76-33.63-98.61-75.3-126.74-7.35-4.96-15.11-9.38-23.21-13.14-22.2-10.44-46.97-16.25-73.11-16.25s-50.91,5.81-73.11,16.25c-8.1,3.76-15.86,8.18-23.21,13.14-41.67,28.13-70.37,73.98-75.3,126.74-8.1-3.78-15.86-8.2-23.21-13.16,9.04-60.4,45.51-111.84,96.34-141.24,7.96-4.63,16.29-8.69,24.92-12.14,22.74-9.18,47.56-14.22,73.57-14.22s50.85,5.04,73.57,14.2c8.63,3.47,16.96,7.53,24.92,12.14,50.83,29.39,87.3,80.83,96.34,141.26,1.36,9.04,2.11,18.28,2.17,27.7-7.96,4.61-16.29,8.67-24.92,12.14Z"/>
      <path class="cls-1" d="M484.69,526.82c0,.57,0,1.14-.02,1.71-.06,9.4-.81,18.64-2.17,27.68-7.58,50.83-34.61,95.3-73.25,125.64-7.29,5.73-14.99,10.95-23.05,15.62-28.98,16.77-62.63,26.36-98.53,26.36-26.01,0-50.83-5.04-73.57-14.22-8.63-3.45-16.96-7.51-24.92-12.14.08-9.4.81-18.62,2.17-27.66,7.35,4.96,15.11,9.38,23.21,13.14,22.2,10.44,46.97,16.25,73.11,16.25s52.64-6.23,75.44-17.36c8.06-3.9,15.78-8.45,23.07-13.55,40.49-28.21,68.28-73.39,73.11-125.22.51-5.34.77-10.78.77-16.25,0-3.51-.1-6.97-.32-10.42-3.23-54.28-31.56-101.78-73.56-131.05,7.29-5.1,15.01-9.65,23.07-13.55,45.92,36.07,75.44,92.1,75.44,155.03Z"/>
      <path class="cls-5" d="M558.57,699.21c0,3.51-.1,6.97-.32,10.42-22.72,9.16-47.56,14.2-73.57,14.2-35.9,0-69.53-9.59-98.51-26.36-8.08-4.65-15.78-9.89-23.07-15.62-38.63-30.34-65.66-74.81-73.25-125.64-1.36-9.04-2.11-18.28-2.17-27.68-.02-.57-.02-1.14-.02-1.71,0-62.93,29.51-118.98,75.44-155.03,7.29-5.73,14.99-10.97,23.07-15.62,8.08,4.65,15.78,9.89,23.07,15.62-8.06,3.9-15.78,8.45-23.07,13.55-41.98,29.28-70.33,76.78-73.57,131.05-.22,3.45-.32,6.92-.32,10.42,0,5.48.26,10.89.77,16.25,4.83,51.83,32.63,96.99,73.11,125.22,7.29,5.1,15.01,9.65,23.07,13.55,22.79,11.13,48.39,17.36,75.44,17.36s50.91-5.81,73.11-16.25c.51,5.34.77,10.78.77,16.25Z"/>
      <path id="blue2" class="cls-2" d="M385.99,502.19c-25.94.02-50.69,5.06-73.37,14.22-8.63,3.45-16.96,7.51-24.92,12.14-50.83,29.39-87.3,80.83-96.34,141.24,7.35,4.96,15.11,9.38,23.21,13.16,4.93-52.76,33.63-98.61,75.3-126.74,7.35-4.96,15.11-9.38,23.21-13.14,22.01-10.35,46.54-16.14,72.43-16.24-.05-8.22.05-16.43.49-24.63Z"/>
    </g>
  </g>
</svg>