<svg width="593" height="151" viewBox="0 0 593 151" fill="none" xmlns="http://www.w3.org/2000/svg">
<path d="M128.658 147.042V4.67862H184.272C199.148 4.67862 210.756 8.66855 219.098 16.6452C227.437 24.6251 231.608 35.156 231.608 48.2316C231.608 61.3072 227.317 72.2909 218.739 80.0865C210.158 87.8885 198.789 91.7847 184.634 91.7847H152.417V147.039H128.661L128.658 147.042ZM152.414 71.628H181.391C189.548 71.628 195.905 69.6492 200.467 65.6884C205.026 61.7276 207.306 55.9108 207.306 48.2316C207.306 40.5525 205.085 34.9135 200.648 30.9527C196.209 26.9919 189.729 25.0131 181.21 25.0131H152.414V71.628Z" fill="black"/>
<path d="M246.724 109.426V43.1941H269.58V106.545C269.58 122.744 275.278 130.84 286.678 130.84C293.517 130.84 298.855 127.933 302.696 122.11C306.534 116.293 308.455 109.364 308.455 101.323V43.1909H331.133V147.039H309.176V134.982H308.995C307.313 138.704 304.103 142.183 299.366 145.419C294.626 148.659 288.715 150.279 281.637 150.279C277.437 150.279 273.447 149.648 269.668 148.391C265.888 147.13 262.199 145.093 258.6 142.27C255.001 139.454 252.12 135.225 249.961 129.582C247.801 123.943 246.721 117.225 246.721 109.426H246.724Z" fill="black"/>
<path d="M357.95 147.042V0H380.629V147.042H357.95Z" fill="black"/>
<path d="M399.524 125.444L415.901 115.905C423.101 126.465 432.458 131.745 443.976 131.745C449.615 131.745 454.083 130.636 457.384 128.415C460.682 126.197 462.335 123.226 462.335 119.507C462.335 116.51 460.983 113.868 458.286 111.589C455.587 109.309 452.735 107.602 449.737 106.458C446.737 105.319 442.236 103.79 436.238 101.869C435.158 101.511 434.376 101.271 433.897 101.148C429.578 99.7096 425.947 98.2999 423.007 96.9192C420.065 95.5418 416.977 93.6794 413.737 91.3385C410.498 89.0008 408.037 86.0617 406.359 82.5212C404.678 78.9839 403.84 74.8711 403.84 70.1925C403.84 61.0745 407.678 53.7542 415.361 48.2349C423.037 42.7188 432.575 39.9576 443.976 39.9576C452.495 39.9576 460.534 42.2079 468.093 46.7055C475.653 51.2063 481.292 56.9358 485.01 63.8939L469.891 73.0734C462.81 63.354 454.232 58.4943 444.153 58.4943C438.634 58.4943 434.402 59.6065 431.466 61.8246C428.524 64.0459 427.056 66.9527 427.056 70.5546C427.056 73.5551 428.342 76.2226 430.926 78.5636C433.506 80.9013 436.174 82.6117 438.935 83.6916C441.693 84.7716 445.592 86.1522 450.633 87.8303C451.952 88.1892 452.913 88.4899 453.514 88.7292C474.87 95.5677 485.55 105.888 485.55 119.685C485.55 128.205 481.98 135.435 474.841 141.371C467.702 147.311 457.591 150.279 444.516 150.279C434.437 150.279 425.465 148.058 417.608 143.622C409.748 139.185 403.721 133.123 399.521 125.444H399.524Z" fill="black"/>
<path d="M497.434 94.6688C497.434 77.9913 502.025 64.7023 511.201 54.8018C520.381 44.9046 531.927 39.9543 545.846 39.9543C559.766 39.9543 570.801 44.9337 579.683 54.8923C588.562 64.8542 593.001 77.8102 593.001 93.7667C593.001 96.8901 592.82 99.9489 592.461 102.946H520.471C520.471 110.865 522.838 117.677 527.581 123.374C532.318 129.075 538.83 131.923 547.107 131.923C552.866 131.923 557.936 130.514 562.317 127.694C566.695 124.875 570.025 121.247 572.305 116.804L591.381 123.284C588.022 130.963 582.564 137.384 575.005 142.542C567.445 147.699 558.023 150.282 546.748 150.282C532.231 150.282 520.381 145.241 511.201 135.163C502.022 125.085 497.434 111.586 497.434 94.6688ZM520.83 86.9282H569.783C569.783 79.0098 567.681 72.2586 563.484 66.6811C559.284 61.1036 553.406 58.3132 545.846 58.3132C538.287 58.3132 532.257 61.165 527.759 66.8621C523.258 72.5625 520.946 79.2523 520.83 86.9282Z" fill="black"/>
<path d="M107.191 113.969C97.4527 140.728 66.2122 153.923 37.4194 143.444C8.62329 132.964 -6.82235 102.775 2.91645 76.0157" fill="url(#paint0_linear_549_94)"/>
<path d="M107.189 113.965C85.3732 132.269 51.7239 128.079 32.0264 104.605C12.329 81.1308 14.0459 47.2616 35.858 28.9577" fill="url(#paint1_linear_549_94)"/>
<path d="M107.192 113.962C79.1489 118.906 52.102 98.4518 46.7799 68.2751C41.4579 38.0984 59.8782 9.62562 87.9209 4.67862" fill="url(#paint2_linear_549_94)"/>
<defs>
<linearGradient id="paint0_linear_549_94" x1="-1.4138" y1="61.4581" x2="68.4608" y2="145.006" gradientUnits="userSpaceOnUse">
<stop offset="0.4" stop-color="#FBAE2F"/>
<stop offset="1" stop-color="#FF3770"/>
</linearGradient>
<linearGradient id="paint1_linear_549_94" x1="41.3758" y1="16.5548" x2="60.1173" y2="123.849" gradientUnits="userSpaceOnUse">
<stop offset="0.4" stop-color="#FBAE2F"/>
<stop offset="1" stop-color="#FF3770"/>
</linearGradient>
<linearGradient id="paint2_linear_549_94" x1="99.7458" y1="1.49568" x2="62.3292" y2="103.786" gradientUnits="userSpaceOnUse">
<stop offset="0.4" stop-color="#FBAE2F"/>
<stop offset="1" stop-color="#FF3770"/>
</linearGradient>
</defs>
</svg>
